# xmcd CD database file
#
# Track frame offsets:
#	150
#	22745
#	49060
#	81354
#	104302
#	132287
#	170670
#	194872
#
# Disc length: 3005 seconds
#
# Revision: 0
# Processed by: cddbd v1.5.2PL0 Copyright (c) Steve Scherf et al.
# Submitted via: CDex 1.51
#
DISCID=6a0bbb08
DTITLE=Ryan Kisor - One Finger Snap - Incredible Ryan
DYEAR=2006
DGENRE=Jazz
TTITLE0=Horror Show
TTITLE1=Blues For Worm
TTITLE2=Tin Tin Deo
TTITLE3=One Finger Snap
TTITLE4=My Ideal
TTITLE5=Buffalo
TTITLE6=Milestones
TTITLE7=A Walk In The Park
EXTD=YEAR: 2006
EXTT0=
EXTT1=
EXTT2=
EXTT3=
EXTT4=
EXTT5=
EXTT6=
EXTT7=
PLAYORDER=
